<svg width="18" height="23" viewBox="0 0 18 23" fill="none" xmlns="http://www.w3.org/2000/svg">
<g clip-path="url(#clip0_66042_91)">
<path d="M6.94736 1.8158H3.94736C3.15171 1.8158 2.38865 2.15085 1.82604 2.74724C1.26343 3.34364 0.947357 4.15252 0.947357 4.99596C0.947357 5.83939 1.26343 6.64827 1.82604 7.24467C2.38865 7.84106 3.15171 8.17611 3.94736 8.17611H6.94736M6.94736 1.8158V8.17611M6.94736 1.8158H9.94736C10.3413 1.8158 10.7314 1.89805 11.0954 2.05787C11.4594 2.21769 11.7901 2.45194 12.0687 2.74724C12.3473 3.04255 12.5682 3.39313 12.719 3.77896C12.8698 4.1648 12.9474 4.57833 12.9474 4.99596C12.9474 5.41358 12.8698 5.82712 12.719 6.21295C12.5682 6.59878 12.3473 6.94936 12.0687 7.24467C11.7901 7.53997 11.4594 7.77422 11.0954 7.93404C10.7314 8.09386 10.3413 8.17611 9.94736 8.17611H6.94736" stroke="#E19AE0" stroke-width="2" stroke-linecap="round" stroke-linejoin="round"/>
<path d="M3.94736 14.5365C3.15171 14.5365 2.38865 14.8715 1.82604 15.4679C1.26343 16.0643 0.947357 16.8732 0.947357 17.7166C0.947357 18.5601 1.26343 19.3689 1.82604 19.9653C2.38865 20.5617 3.15171 20.8968 3.94736 20.8968C4.74301 20.8968 5.50607 20.5617 6.06868 19.9653C6.63129 19.3689 6.94736 18.5601 6.94736 17.7166V14.5365M3.94736 14.5365H6.94736M3.94736 14.5365C3.15171 14.5365 2.38865 14.2014 1.82604 13.605C1.26343 13.0086 0.947357 12.1997 0.947357 11.3563C0.947357 10.5129 1.26343 9.70399 1.82604 9.10759C2.38865 8.5112 3.15171 8.17615 3.94736 8.17615H6.94736V14.5365M6.94736 11.3563C6.94736 10.9387 7.02495 10.5251 7.17572 10.1393C7.32648 9.75348 7.54746 9.4029 7.82604 9.10759C8.10461 8.81229 8.43533 8.57804 8.79931 8.41822C9.16328 8.2584 9.55339 8.17615 9.94736 8.17615C10.3413 8.17615 10.7314 8.2584 11.0954 8.41822C11.4594 8.57804 11.7901 8.81229 12.0687 9.10759C12.3473 9.4029 12.5682 9.75348 12.719 10.1393C12.8698 10.5251 12.9474 10.9387 12.9474 11.3563C12.9474 11.7739 12.8698 12.1875 12.719 12.5733C12.5682 12.9591 12.3473 13.3097 12.0687 13.605C11.7901 13.9003 11.4594 14.1346 11.0954 14.2944C10.7314 14.4542 10.3413 14.5365 9.94736 14.5365C9.55339 14.5365 9.16328 14.4542 8.79931 14.2944C8.43533 14.1346 8.10461 13.9003 7.82604 13.605C7.54746 13.3097 7.32648 12.9591 7.17572 12.5733C7.02495 12.1875 6.94736 11.7739 6.94736 11.3563Z" stroke="#E19AE0" stroke-width="2" stroke-linecap="round" stroke-linejoin="round"/>
</g>
<defs>
<clipPath id="clip0_66042_91">
<rect width="18" height="23" fill="white"/>
</clipPath>
</defs>
</svg>
