<svg width="27" height="27" viewBox="0 0 27 27" fill="none" xmlns="http://www.w3.org/2000/svg">
<path d="M1.875 13.5C1.875 8.01946 1.875 5.27983 3.57742 3.57742C5.27983 1.875 8.02075 1.875 13.5 1.875C18.9792 1.875 21.7202 1.875 23.4226 3.57742C25.125 5.27983 25.125 8.02075 25.125 13.5C25.125 18.9792 25.125 21.7202 23.4226 23.4226C21.7202 25.125 18.9792 25.125 13.5 25.125C8.02075 25.125 5.27983 25.125 3.57742 23.4226C1.875 21.7202 1.875 18.9792 1.875 13.5Z" stroke="#E19AE0" stroke-width="2" stroke-linecap="round" stroke-linejoin="round"/>
<path d="M14.7232 18.3954L13.664 14.9686M13.664 14.9686L12.778 12.1037C12.0559 9.77092 11.6955 8.60583 11.0523 8.60583C10.4103 8.60583 10.0487 9.77092 9.32792 12.1037L8.44055 14.9686M13.664 14.9686H8.44055M7.38138 18.3941L8.44055 14.9686M18.3941 18.3941V12.2768M18.3941 9.21679V8.60583" stroke="#E19AE0" stroke-width="2" stroke-linecap="round" stroke-linejoin="round"/>
</svg>
