<?xml version="1.0" encoding="iso-8859-1"?>
<!-- Uploaded to: SVG Repo, www.svgrepo.com, Generator: SVG Repo Mixer Tools -->
<svg fill="#000000" height="800px" width="800px" version="1.1" id="Layer_1" xmlns="http://www.w3.org/2000/svg" xmlns:xlink="http://www.w3.org/1999/xlink" 
	 viewBox="0 0 512.003 512.003" xml:space="preserve">
<g>
	<g>
		<g>
			<path d="M506.267,495.415l-224.299-78.02l121.182-42.146c10.795,15.573,28.774,25.822,49.118,25.822
				c32.93,0,59.733-26.803,59.733-59.733c0-32.93-26.803-59.733-59.733-59.733c-32.93,0-59.733,26.803-59.733,59.733
				c0,6.46,1.067,12.672,2.97,18.5l-139.503,48.529l-139.503-48.529c1.903-5.828,2.97-12.041,2.97-18.5
				c0-32.93-26.803-59.733-59.733-59.733S0.002,308.407,0.002,341.337c0,32.93,26.803,59.733,59.733,59.733
				c20.343,0,38.323-10.24,49.118-25.822l121.182,42.146L5.736,495.415c-4.463,1.545-6.81,6.409-5.257,10.854
				c1.22,3.524,4.523,5.734,8.055,5.734c0.93,0,1.877-0.154,2.799-0.478l244.668-85.103l244.668,85.103
				c0.922,0.324,1.869,0.478,2.799,0.478c3.533,0,6.835-2.21,8.055-5.734C513.077,501.823,510.73,496.959,506.267,495.415z
				 M460.802,315.737c4.719,0,8.533,3.814,8.533,8.533c0,4.719-3.814,8.533-8.533,8.533c-9.412,0-17.067,7.654-17.067,17.067
				c0,4.719-3.814,8.533-8.533,8.533s-8.533-3.814-8.533-8.533C426.668,331.046,441.977,315.737,460.802,315.737z M68.268,332.803
				c-9.412,0-17.067,7.654-17.067,17.067c0,4.719-3.814,8.533-8.533,8.533s-8.533-3.814-8.533-8.533
				c0-18.825,15.309-34.133,34.133-34.133c4.719,0,8.533,3.814,8.533,8.533C76.802,328.989,72.987,332.803,68.268,332.803z"/>
			<path d="M332.418,157.308l87.893-49.425c-4.582-10.505-10.12-20.497-16.538-29.85l-107.418,70.494L332.418,157.308z"/>
			<path d="M273.674,142.999l119.757-78.592c-7.919-9.463-16.845-18.022-26.522-25.685l-139.511,93.005L273.674,142.999z"/>
			<path d="M435.044,182.307c0.017-1.041,0.154-2.057,0.154-3.106c0-19.251-3.132-37.769-8.781-55.168l-69.692,39.194
				L435.044,182.307z"/>
			<path d="M433.952,199.607l-7.927-1.929L166.048,331.856l-7.834-15.172l46.063-23.774L99.53,255.5l5.734-16.06l119.467,42.667
				l-0.111,0.307l42.377-21.871L78.538,202.815c8.516,64.23,51.029,117.845,108.937,141.909l241.886-120.943
				C431.392,215.897,433.013,207.867,433.952,199.607z"/>
			<path d="M421.945,246.573L210.464,352.318c14.566,3.831,29.781,6.084,45.534,6.084
				C330.98,358.403,395.253,312.067,421.945,246.573z"/>
			<path d="M204.866,126.238l147.14-98.091c-8.841-5.641-18.15-10.598-27.947-14.635l-168.038,100.83L204.866,126.238z"/>
			<path d="M288.695,249.343l46.054-23.774L78.391,156.594c-0.947,7.424-1.587,14.933-1.587,22.605c0,1.801,0.213,3.533,0.265,5.316
				L288.695,249.343z"/>
			<path d="M302.736,6.4C287.811,2.355,272.187,0,255.999,0C185.787,0,125.047,40.695,95.675,99.644l36.762,8.951L302.736,6.4z"/>
			<path d="M355.764,214.728l44.971-23.211L88.713,115.511c-2.995,7.834-5.504,15.889-7.381,24.201l274.731,73.916L355.764,214.728z
				"/>
		</g>
	</g>
</g>
</svg>