<svg width="25" height="26" viewBox="0 0 25 26" fill="none" xmlns="http://www.w3.org/2000/svg">
<path d="M18.3587 1H6.97337C4.08937 1 2.6467 1 1.85337 1.94533C1.06004 2.89067 1.29204 4.33733 1.7507 7.232L3.58404 18.78C3.98004 21.2733 4.55337 22.0213 6.90804 22.9413L10.7667 24.4493C11.7054 24.816 12.1747 25 12.6654 25C13.156 25 13.6254 24.816 14.564 24.4493L18.4227 22.9427C20.7774 22.0227 21.3507 21.2747 21.7467 18.78L23.58 7.232C24.0387 4.33867 24.2694 2.89067 23.476 1.94533C22.6867 1 21.244 1 18.3587 1Z" stroke="#E19AE0" stroke-width="2" stroke-linecap="round" stroke-linejoin="round"/>
<path d="M16.6667 7.66663H10.036C8.82537 7.66663 8.58137 7.91863 8.68937 9.12396L8.9307 11.8C9.02404 12.816 9.25604 13.0186 10.2774 13.0186H14.484C15.7174 13.0186 15.9627 13.2773 15.828 14.5013L15.6014 16.5493C15.5107 17.3733 15.4854 17.4053 14.6934 17.672L13.0467 18.2253C12.616 18.3693 12.6094 18.3693 12.1787 18.2253L10.3467 17.6093C9.85337 17.444 9.68937 17.2426 9.60004 16.7493" stroke="#E19AE0" stroke-width="2" stroke-linecap="round" stroke-linejoin="round"/>
</svg>
