<svg width="154" height="24" viewBox="0 0 154 24" fill="none" xmlns="http://www.w3.org/2000/svg">
<g clip-path="url(#clip0_160_73)">
<rect width="24" height="24" fill="#212122" fill-opacity="0.129412"/>
<path d="M19 9L20.25 6.25L23 5L20.25 3.75L19 1L17.75 3.75L15 5L17.75 6.25L19 9Z" fill="#E19AE0"/>
<path d="M19 15L17.75 17.75L15 19L17.75 20.25L19 23L20.25 20.25L23 19L20.25 17.75L19 15Z" fill="#E19AE0"/>
<path d="M11.5 9.5L9 4L6.5 9.5L1 12L6.5 14.5L9 20L11.5 14.5L17 12L11.5 9.5ZM9.99 12.99L9 15.17L8.01 12.99L5.83 12L8.01 11.01L9 8.83L9.99 11.01L12.17 12L9.99 12.99Z" fill="#E19AE0"/>
</g>
<path d="M32.544 14.012H34.704C34.7467 14.3747 34.912 14.7053 35.2 15.004C35.4987 15.292 35.888 15.5213 36.368 15.692C36.848 15.852 37.3867 15.932 37.984 15.932C38.528 15.932 38.976 15.8733 39.328 15.756C39.68 15.6387 39.9413 15.4733 40.112 15.26C40.2827 15.0467 40.368 14.7907 40.368 14.492C40.368 14.204 40.2613 13.9853 40.048 13.836C39.8347 13.676 39.4987 13.548 39.04 13.452C38.5813 13.3453 37.9787 13.2387 37.232 13.132C36.6453 13.0467 36.0907 12.9293 35.568 12.78C35.0453 12.62 34.5813 12.4173 34.176 12.172C33.7813 11.9267 33.4667 11.628 33.232 11.276C33.008 10.9133 32.896 10.4867 32.896 9.996C32.896 9.388 33.0667 8.85467 33.408 8.396C33.76 7.93733 34.2773 7.58 34.96 7.324C35.6427 7.068 36.48 6.94 37.472 6.94C38.9653 6.94 40.112 7.26 40.912 7.9C41.7227 8.52933 42.1173 9.39867 42.096 10.508H40.016C39.9733 9.87867 39.7067 9.42533 39.216 9.148C38.736 8.87067 38.128 8.732 37.392 8.732C36.7093 8.732 36.144 8.83333 35.696 9.036C35.2587 9.23867 35.04 9.58533 35.04 10.076C35.04 10.268 35.0933 10.4387 35.2 10.588C35.3067 10.7267 35.488 10.8493 35.744 10.956C36 11.0627 36.3467 11.164 36.784 11.26C37.2213 11.356 37.7653 11.452 38.416 11.548C39.024 11.6333 39.5733 11.7507 40.064 11.9C40.5653 12.0387 40.992 12.2253 41.344 12.46C41.7067 12.684 41.984 12.972 42.176 13.324C42.368 13.676 42.464 14.108 42.464 14.62C42.464 15.2493 42.2987 15.7987 41.968 16.268C41.648 16.7267 41.1467 17.084 40.464 17.34C39.792 17.596 38.9173 17.724 37.84 17.724C37.072 17.724 36.3947 17.644 35.808 17.484C35.2213 17.3133 34.7147 17.0893 34.288 16.812C33.8613 16.5347 33.5147 16.2307 33.248 15.9C32.9813 15.5693 32.7893 15.2387 32.672 14.908C32.5653 14.5773 32.5227 14.2787 32.544 14.012ZM43.5094 9.548H49.6854V11.164H43.5094V9.548ZM45.5574 7.372H47.6374V17.5H45.5574V7.372ZM58.1455 14.86H60.1615C60.0762 15.404 59.8468 15.8893 59.4735 16.316C59.1108 16.7427 58.6148 17.0787 57.9855 17.324C57.3562 17.5693 56.5882 17.692 55.6815 17.692C54.6682 17.692 53.7722 17.532 52.9935 17.212C52.2148 16.8813 51.6068 16.4067 51.1695 15.788C50.7322 15.1693 50.5135 14.4227 50.5135 13.548C50.5135 12.6733 50.7268 11.9267 51.1535 11.308C51.5802 10.6787 52.1722 10.1987 52.9295 9.868C53.6975 9.53733 54.5935 9.372 55.6175 9.372C56.6628 9.372 57.5322 9.53733 58.2255 9.868C58.9188 10.1987 59.4308 10.7 59.7615 11.372C60.1028 12.0333 60.2468 12.8813 60.1935 13.916H52.6095C52.6628 14.3213 52.8122 14.6893 53.0575 15.02C53.3135 15.3507 53.6548 15.612 54.0815 15.804C54.5188 15.996 55.0362 16.092 55.6335 16.092C56.2948 16.092 56.8442 15.98 57.2815 15.756C57.7295 15.5213 58.0175 15.2227 58.1455 14.86ZM55.5215 10.956C54.7535 10.956 54.1295 11.1267 53.6495 11.468C53.1695 11.7987 52.8602 12.2093 52.7215 12.7H58.1295C58.0762 12.1667 57.8202 11.7453 57.3615 11.436C56.9135 11.116 56.3002 10.956 55.5215 10.956ZM61.0719 9.692H67.4719V11.276H61.0719V9.692ZM65.9359 6.348H67.5839V8.028H66.4319C66.1225 8.01733 65.8559 8.04933 65.6319 8.124C65.4079 8.19867 65.2372 8.33733 65.1199 8.54C65.0025 8.732 64.9439 9.00933 64.9439 9.372V17.5H62.8639V9.116C62.8639 8.476 62.9812 7.95333 63.2159 7.548C63.4505 7.132 63.7972 6.828 64.2559 6.636C64.7145 6.444 65.2745 6.348 65.9359 6.348ZM72.5351 17.676C71.7458 17.676 71.0258 17.5053 70.3751 17.164C69.7351 16.812 69.2231 16.3267 68.8391 15.708C68.4658 15.0787 68.2791 14.3533 68.2791 13.532C68.2791 12.6893 68.4711 11.9587 68.8551 11.34C69.2391 10.7213 69.7565 10.2413 70.4071 9.9C71.0685 9.548 71.8151 9.372 72.6471 9.372C73.5645 9.372 74.3005 9.55867 74.8551 9.932C75.4205 10.2947 75.8311 10.7907 76.0871 11.42C76.3431 12.0493 76.4711 12.7533 76.4711 13.532C76.4711 14.0013 76.3965 14.4813 76.2471 14.972C76.0978 15.452 75.8685 15.9 75.5591 16.316C75.2498 16.7213 74.8445 17.052 74.3431 17.308C73.8418 17.5533 73.2391 17.676 72.5351 17.676ZM73.2071 16.076C73.8365 16.076 74.3805 15.9693 74.8391 15.756C75.2978 15.5427 75.6498 15.244 75.8951 14.86C76.1405 14.476 76.2631 14.0333 76.2631 13.532C76.2631 12.988 76.1351 12.5293 75.8791 12.156C75.6338 11.772 75.2818 11.484 74.8231 11.292C74.3751 11.0893 73.8365 10.988 73.2071 10.988C72.3218 10.988 71.6338 11.2227 71.1431 11.692C70.6525 12.1507 70.4071 12.764 70.4071 13.532C70.4071 14.044 70.5245 14.492 70.7591 14.876C70.9938 15.2493 71.3191 15.5427 71.7351 15.756C72.1618 15.9693 72.6525 16.076 73.2071 16.076ZM76.2631 9.548H78.3431V17.5H76.4071C76.4071 17.5 76.3911 17.3987 76.3591 17.196C76.3378 16.9827 76.3165 16.716 76.2951 16.396C76.2738 16.076 76.2631 15.7613 76.2631 15.452V9.548ZM80.2256 9.548H82.3056V17.5H80.2256V9.548ZM86.0016 9.372C86.4923 9.372 86.9456 9.436 87.3616 9.564C87.7776 9.692 88.1403 9.88933 88.4496 10.156C88.759 10.4227 88.999 10.764 89.1696 11.18C89.3403 11.5853 89.4256 12.0707 89.4256 12.636V17.5H87.3456V13.004C87.3456 12.332 87.1803 11.8413 86.8496 11.532C86.5296 11.212 86.0016 11.052 85.2656 11.052C84.711 11.052 84.2096 11.1587 83.7616 11.372C83.3136 11.5853 82.951 11.8573 82.6736 12.188C82.3963 12.508 82.2363 12.844 82.1936 13.196L82.1776 12.38C82.231 12.0067 82.3536 11.644 82.5456 11.292C82.7376 10.94 82.9936 10.62 83.3136 10.332C83.6443 10.0333 84.0336 9.79867 84.4816 9.628C84.9296 9.45733 85.4363 9.372 86.0016 9.372ZM93.7034 6.06V7.884H91.2874V6.06H93.7034ZM91.4474 9.548H93.5274V17.5H91.4474V9.548ZM102.849 14.86H104.865C104.779 15.404 104.55 15.8893 104.177 16.316C103.814 16.7427 103.318 17.0787 102.689 17.324C102.059 17.5693 101.291 17.692 100.385 17.692C99.3713 17.692 98.4753 17.532 97.6966 17.212C96.918 16.8813 96.31 16.4067 95.8726 15.788C95.4353 15.1693 95.2166 14.4227 95.2166 13.548C95.2166 12.6733 95.43 11.9267 95.8566 11.308C96.2833 10.6787 96.8753 10.1987 97.6326 9.868C98.4006 9.53733 99.2966 9.372 100.321 9.372C101.366 9.372 102.235 9.53733 102.929 9.868C103.622 10.1987 104.134 10.7 104.465 11.372C104.806 12.0333 104.95 12.8813 104.897 13.916H97.3126C97.366 14.3213 97.5153 14.6893 97.7606 15.02C98.0166 15.3507 98.358 15.612 98.7846 15.804C99.222 15.996 99.7393 16.092 100.337 16.092C100.998 16.092 101.547 15.98 101.985 15.756C102.433 15.5213 102.721 15.2227 102.849 14.86ZM100.225 10.956C99.4566 10.956 98.8326 11.1267 98.3526 11.468C97.8726 11.7987 97.5633 12.2093 97.4246 12.7H102.833C102.779 12.1667 102.523 11.7453 102.065 11.436C101.617 11.116 101.003 10.956 100.225 10.956ZM118.624 16.444H117.616L123.568 7.148H125.696V17.5H123.568V9.98L124.08 10.124L119.328 17.5H116.944L112.192 10.156L112.704 10.012V17.5H110.576V7.148H112.704L118.624 16.444ZM135.13 14.86H137.146C137.061 15.404 136.831 15.8893 136.458 16.316C136.095 16.7427 135.599 17.0787 134.97 17.324C134.341 17.5693 133.573 17.692 132.666 17.692C131.653 17.692 130.757 17.532 129.978 17.212C129.199 16.8813 128.591 16.4067 128.154 15.788C127.717 15.1693 127.498 14.4227 127.498 13.548C127.498 12.6733 127.711 11.9267 128.138 11.308C128.565 10.6787 129.157 10.1987 129.914 9.868C130.682 9.53733 131.578 9.372 132.602 9.372C133.647 9.372 134.517 9.53733 135.21 9.868C135.903 10.1987 136.415 10.7 136.746 11.372C137.087 12.0333 137.231 12.8813 137.178 13.916H129.594C129.647 14.3213 129.797 14.6893 130.042 15.02C130.298 15.3507 130.639 15.612 131.066 15.804C131.503 15.996 132.021 16.092 132.618 16.092C133.279 16.092 133.829 15.98 134.266 15.756C134.714 15.5213 135.002 15.2227 135.13 14.86ZM132.506 10.956C131.738 10.956 131.114 11.1267 130.634 11.468C130.154 11.7987 129.845 12.2093 129.706 12.7H135.114C135.061 12.1667 134.805 11.7453 134.346 11.436C133.898 11.116 133.285 10.956 132.506 10.956ZM138.886 6.348H140.966V17.5H138.886V6.348ZM147.757 17.692C146.755 17.692 145.869 17.532 145.101 17.212C144.344 16.892 143.752 16.428 143.325 15.82C142.899 15.2013 142.685 14.444 142.685 13.548C142.685 12.652 142.899 11.8947 143.325 11.276C143.752 10.6467 144.344 10.172 145.101 9.852C145.869 9.532 146.755 9.372 147.757 9.372C148.76 9.372 149.635 9.532 150.381 9.852C151.139 10.172 151.731 10.6467 152.157 11.276C152.584 11.8947 152.797 12.652 152.797 13.548C152.797 14.444 152.584 15.2013 152.157 15.82C151.731 16.428 151.139 16.892 150.381 17.212C149.635 17.532 148.76 17.692 147.757 17.692ZM147.757 16.092C148.312 16.092 148.808 15.996 149.245 15.804C149.693 15.6013 150.045 15.3133 150.301 14.94C150.557 14.556 150.685 14.092 150.685 13.548C150.685 13.004 150.557 12.54 150.301 12.156C150.045 11.7613 149.699 11.4627 149.261 11.26C148.824 11.0573 148.323 10.956 147.757 10.956C147.203 10.956 146.701 11.0573 146.253 11.26C145.805 11.4627 145.448 11.756 145.181 12.14C144.925 12.524 144.797 12.9933 144.797 13.548C144.797 14.092 144.925 14.556 145.181 14.94C145.437 15.3133 145.789 15.6013 146.237 15.804C146.685 15.996 147.192 16.092 147.757 16.092Z" fill="white"/>
<defs>
<clipPath id="clip0_160_73">
<rect width="24" height="24" fill="white"/>
</clipPath>
</defs>
</svg>
