<svg width="95" height="38" viewBox="0 0 95 38" fill="none" xmlns="http://www.w3.org/2000/svg">
<path d="M94.7422 22.9737C94.6233 23.0332 94.5638 23.0332 94.4448 23.0927C94.1474 23.1522 93.9094 23.1522 93.612 23.2116C93.1361 23.2711 92.6602 23.3306 92.2438 23.2711C92.0653 23.2711 91.6489 23.2711 91.173 23.0927C90.6377 22.9142 90.1618 22.4978 89.9238 21.9029C89.6264 21.2486 89.5669 20.4753 89.6264 19.8209C89.6264 19.1666 89.7454 18.6312 89.7454 18.3932C89.8048 17.9768 89.8048 17.5604 89.9238 17.144C89.9238 17.025 89.8643 16.9061 89.7454 16.8466C89.4479 16.7276 89.21 16.5491 88.8531 16.4302C88.6151 16.4302 88.4366 16.4897 88.4366 16.7276C88.4168 16.7673 88.4168 16.8268 88.397 16.8664C88.2582 16.9656 88.0599 17.1044 87.8418 17.263C87.4254 17.5604 86.9495 17.8579 86.4736 18.0958C84.9864 18.8691 83.3208 19.226 81.6552 19.226C80.287 19.226 78.9783 18.9286 77.6696 18.4527C77.0152 18.2148 76.4204 17.9173 75.766 17.6199L74.8142 17.0845L74.4573 16.9061L73.9814 16.6681C73.7435 16.6086 73.565 16.5492 73.3866 16.5492C73.684 15.8948 73.8624 15.2999 74.0409 14.8835C74.9332 12.623 75.885 10.3626 76.8963 8.04258C77.1937 7.32874 77.2532 6.91233 77.2532 6.67439L77.1342 5.78209C77.0152 5.54414 76.8963 5.36569 76.7178 5.42517C76.6583 5.42517 76.5988 5.42517 76.5393 5.48466C76.4204 5.54414 76.3609 5.66312 76.2419 5.78209C76.0634 6.07952 75.885 6.49593 75.647 7.03131C75.2306 7.98309 74.8142 8.93487 74.4573 9.88666C74.0211 10.8781 72.871 13.4757 71.5425 16.8466C71.4037 16.9457 71.2054 17.0845 70.9476 17.263C70.5312 17.5604 70.0553 17.8579 69.5794 18.0958C68.0923 18.8691 66.4266 19.226 64.761 19.226C63.3928 19.226 62.0841 18.9286 60.7754 18.4527C60.1211 18.2148 59.5262 17.9173 58.8718 17.6199L57.9201 17.0845L57.5631 16.9061L57.0872 16.6681C56.8493 16.6086 56.6708 16.5492 56.4924 16.5492C56.7898 15.8948 56.9683 15.2999 57.1467 14.8835C58.039 12.623 58.9908 10.3626 60.0021 8.04258C60.2995 7.32874 60.359 6.91233 60.359 6.67439L60.24 5.78209C60.1211 5.54414 60.0021 5.36569 59.8236 5.42517C59.7641 5.42517 59.7047 5.42517 59.6452 5.48466C59.5262 5.54414 59.4667 5.66312 59.3477 5.78209C59.1693 6.07952 58.9908 6.49593 58.7529 7.03131C58.3365 7.98309 57.9201 8.93487 57.5631 9.88666C57.1666 10.779 56.1949 12.9998 55.0052 15.9146V15.8948C54.9457 15.7758 54.8268 15.8948 54.5888 16.1327C54.4104 16.3112 54.2319 16.4897 53.994 16.6086C53.3991 17.0845 52.6852 17.5009 51.9714 17.9173C50.8412 18.5122 49.5919 19.0476 48.3427 19.4045C47.9263 19.5235 46.6771 19.9399 44.952 20.1183C44.0597 20.2373 43.1079 20.2373 42.0966 20.1183C41.0854 19.9994 40.0741 19.6425 39.3603 19.0476C39.0033 18.7502 38.7059 18.3932 38.468 17.9173C38.4085 17.8579 38.349 17.7389 38.349 17.6199L38.4085 17.5604L39.4792 16.4897C39.5387 16.3707 39.6577 16.2517 39.8361 16.0733L40.0146 15.8353L40.2526 15.5379L40.55 15.1215L40.8474 14.7051C40.8474 14.5861 40.9069 14.5266 40.9664 14.4076C40.9664 14.3482 41.0259 14.2292 41.0854 14.1102C41.1449 14.0507 41.1449 13.8723 41.1449 13.7533C41.2043 13.5748 41.2043 13.3964 41.2043 13.2774C41.1449 12.5636 40.55 11.9687 39.7767 11.9092H39.3008C39.1223 11.9687 39.0033 12.0282 38.8844 12.0282L38.468 12.2066L38.111 12.3851C37.6351 12.6825 37.2782 13.0989 36.9808 13.5748C36.6834 14.0507 36.5049 14.5861 36.4454 15.1215C36.3066 15.9741 36.4256 16.7871 36.6239 17.5208L35.6721 18.3338C34.4229 19.2855 33.1142 20.2373 31.746 21.0106C30.6752 21.7245 29.545 22.3193 28.4147 22.7952C27.225 23.3306 26.0353 23.6875 24.8455 23.8065C24.4886 23.8065 23.7153 23.9255 22.704 23.6875C22.2281 23.5686 21.6928 23.3306 21.1574 22.9737C20.6815 22.6168 20.2056 22.0219 19.9082 21.3676C19.5512 20.6537 19.3133 19.8209 19.1943 18.9286C19.1348 18.6907 19.0753 18.5122 19.0753 18.2743C19.3728 18.0958 19.7297 17.7389 20.0866 17.3225C20.741 16.5491 21.2763 15.7758 21.8712 15.0025C22.3471 14.2292 23.5963 12.3851 24.6076 9.64872C24.7861 9.11334 25.024 8.51847 25.2025 7.86412C25.262 7.9236 25.3809 7.92361 25.4999 7.92361C26.5707 8.04258 27.7009 8.22104 27.9983 8.28052C28.2958 8.28052 28.5932 8.28052 28.8311 8.16155C29.2475 7.80463 29.426 7.38822 29.545 6.85285C29.545 6.73387 29.4855 6.67439 29.307 6.67439C29.1881 6.73387 29.0691 6.73388 29.0096 6.73388L27.9388 6.6149C27.344 6.55542 26.8086 6.49593 26.2137 6.37695C26.0948 6.37695 25.9163 6.37696 25.6784 6.31747H25.5594L25.7378 5.00876C25.7973 4.11647 25.8568 3.22417 25.6189 2.2129C25.5594 1.97495 25.4999 1.737 25.3809 1.49906C25.2619 1.20162 25.0835 0.963679 24.8455 0.725733C24.5481 0.487787 24.1317 0.309326 23.7153 0.309326C23.5963 0.309326 23.4179 0.30933 23.2394 0.368816C23.0609 0.428303 22.942 0.428302 22.823 0.547275C22.2281 0.785221 21.8712 1.14214 21.5738 1.49906C21.2169 1.85598 20.9194 2.27238 20.6815 2.6293C20.2056 3.40263 19.8487 4.23544 19.4918 5.00876L18.8969 6.49593C18.0046 6.67439 17.2313 6.91233 16.9338 6.97182L15.5062 7.5072C15.3277 7.56669 15.2682 7.68566 15.2682 7.80463C15.2682 8.10207 15.2087 8.45898 15.3872 8.75642C15.4467 8.99436 15.6846 9.11334 15.8631 8.99436L16.4579 8.75642L18.421 8.22104C18.302 8.69693 18.1831 9.17282 18.1236 9.58922C17.4692 12.4446 17.4097 14.7646 17.4097 15.7758V17.263C17.4097 17.3423 17.4296 17.4415 17.4296 17.5406L17.2313 17.7389C16.4579 18.4527 15.7441 19.1666 14.8518 19.7019C11.4611 21.665 9.43853 22.0219 5.51242 23.2116C5.39344 22.8547 5.09601 22.2599 4.73909 21.8435C3.25193 20.1184 2.41912 19.1666 2.77604 18.5122L3.01398 18.0958V17.8579C3.01398 17.4414 3.07347 16.9061 2.83552 16.7276C2.71655 16.6086 2.59758 16.6681 2.35963 16.7871C2.24066 16.7871 2.12169 16.9061 2.00271 16.9656L1.64579 17.382C1.22939 18.0363 0.991441 18.9881 1.46733 20.1183C2.00271 21.4271 3.66833 22.2004 4.02525 23.985C3.90628 24.1039 3.72782 24.1634 3.54936 24.2229C2.9545 24.5204 2.30015 24.8773 1.70528 25.2937C1.34836 25.5316 1.05093 25.7696 0.69401 26.1265L0.475891 26.4239L0.297433 26.7214L0.118974 27.0783L0 27.4947C0 27.7921 -2.42288e-06 28.0895 0.0594841 28.3275C0.0594841 28.5059 0.118972 28.5654 0.178458 28.6844C0.178458 28.8034 0.237946 28.9224 0.297433 29.1008L0.416407 29.2793L0.535375 29.4577L0.951782 29.8146C1.24921 29.9931 1.60614 30.1121 1.96305 30.0526C2.31997 29.9931 2.61741 29.9336 2.79587 29.8146C3.03381 29.6957 3.21227 29.5172 3.39073 29.3982C3.74765 29.1008 3.9856 28.8034 4.22354 28.4465C4.75892 27.8516 5.05636 27.1378 5.35379 26.4239C5.53225 25.8885 5.59173 25.4126 5.65122 24.8773C7.55479 23.6281 12.3137 23.5686 16.3588 20.6537C16.8545 20.2968 17.3502 19.8606 17.6873 19.4243C17.7072 19.583 17.7468 19.7218 17.7865 19.8804C17.9649 20.9512 18.3813 22.0814 19.1547 23.1522C19.5711 23.6875 20.1065 24.1634 20.6418 24.5204C21.2367 24.8773 21.9505 25.1747 22.6049 25.2937C23.2592 25.4126 23.9731 25.4721 24.6274 25.4127C24.9249 25.4127 25.2818 25.3532 25.5792 25.2937L26.4715 25.1152C27.7207 24.8178 28.7915 24.4014 29.6838 23.985C31.5873 23.1522 32.8366 22.3193 33.3719 21.9624C34.4427 21.2486 35.5729 20.4753 36.2273 19.7019C36.5842 19.3054 36.842 18.9484 37.0601 18.6113C37.4369 19.345 37.9524 19.9597 38.4878 20.3563C39.2016 20.8917 39.9155 21.1891 40.4508 21.3676C40.7483 21.4865 41.0457 21.546 41.2242 21.546C41.4621 21.6055 41.6406 21.665 41.7595 21.665C42.1165 21.665 42.9493 21.784 44.02 21.784C45.0908 21.7245 46.3995 21.546 47.6487 21.2486C48.9574 20.9512 50.2066 20.4753 51.1584 20.0589C52.1697 19.6425 52.8835 19.2855 53.181 19.1071C53.4387 18.9683 53.7163 18.8096 53.9543 18.651C53.0818 20.9115 52.1697 23.4099 51.3369 25.948L50.5041 28.7439L49.7902 31.4803C49.7307 31.8967 49.6118 32.3726 49.4928 32.789C49.4928 33.0269 49.4333 33.2649 49.3738 33.4433V33.6813L49.3143 33.9192V34.4546L49.1359 36.4177V36.8341L49.2549 37.072C49.3738 37.191 49.4333 37.2505 49.6713 37.3694C49.9092 37.4884 50.0282 37.4289 50.2066 37.4289L50.6825 37.191C50.98 36.953 51.3964 36.4771 51.6938 35.9418C51.8723 35.6443 52.0507 35.4064 52.1697 35.109L52.3481 34.8115L52.5266 34.5141L52.943 33.6813C53.4189 32.67 53.7758 31.7777 53.9543 31.3018C54.4302 30.1121 56.4527 25.1152 56.9881 19.583C56.9881 19.226 57.0476 18.8691 57.0476 18.5122V18.4527C57.0476 18.3932 57.1071 18.4527 57.1071 18.4527H57.1666L57.583 18.6907C58.7132 19.345 59.9029 19.8804 61.0332 20.2373C62.1039 20.5942 63.1152 20.7727 63.948 20.8322C64.7808 20.8917 65.4352 20.8322 65.7921 20.8322C67.2793 20.7132 68.8259 20.2373 69.7777 19.583C70.1941 19.2855 70.5312 19.0079 70.8088 18.7303C69.9562 20.971 69.044 23.4298 68.2311 25.948L67.3982 28.7439L66.6844 31.4803C66.6249 31.8967 66.506 32.3726 66.387 32.789C66.387 33.0269 66.3275 33.2649 66.268 33.4433V33.6813L66.2085 33.9192V34.4546L66.03 36.4177V36.8341L66.149 37.072C66.268 37.191 66.3275 37.2505 66.5654 37.3694C66.8034 37.4884 66.9224 37.4289 67.1008 37.4289L67.5767 37.191C67.8741 36.953 68.2905 36.4771 68.588 35.9418C68.7664 35.6443 68.9449 35.4064 69.0639 35.109L69.2423 34.8115L69.4208 34.5141L69.8372 33.6813C70.3131 32.67 70.67 31.7777 70.8485 31.3018C71.3244 30.1121 73.3469 25.1152 73.8823 19.583C73.8823 19.226 73.9418 18.8691 73.9418 18.5122V18.4527C73.9418 18.3932 74.0012 18.4527 74.0012 18.4527H74.0607L74.4771 18.6907C75.6074 19.345 76.7971 19.8804 77.9274 20.2373C78.9981 20.5942 80.0094 20.7727 80.8422 20.8322C81.675 20.8917 82.3294 20.8322 82.6863 20.8322C84.1734 20.7132 85.7201 20.2373 86.6719 19.583C87.3659 19.0872 87.8616 18.6312 88.1789 18.2148C88.0996 18.8295 88.0004 19.6226 88.0401 20.4753C88.0996 21.1891 88.2185 21.9624 88.516 22.6168C88.8134 23.2116 89.1703 23.628 89.3488 23.8065C89.4678 23.866 89.7652 24.1039 90.1816 24.3419C90.598 24.5798 91.1334 24.7583 91.6688 24.8178C92.799 24.9962 93.8103 24.8178 94.0482 24.8178C94.2862 24.7583 94.5836 24.6988 94.7026 24.4609C95 24.0445 95 23.5686 95 23.0927C94.9207 22.9142 94.8612 22.9142 94.7422 22.9737ZM3.74765 26.1265C3.56919 26.5429 3.33124 27.0188 3.03381 27.4352C2.79586 27.7921 2.43895 28.149 2.14151 28.3275C2.02254 28.387 1.96306 28.4465 1.90357 28.4465H1.84408C1.78459 28.4465 1.7846 28.4465 1.7846 28.387C1.72511 28.3275 1.60614 28.149 1.60614 27.9706V27.6731C1.66562 27.4352 1.90357 27.1972 2.14151 26.9593L2.97433 26.3644L3.80713 25.8885C3.80713 25.948 3.74765 26.0075 3.74765 26.1265ZM21.9307 3.70006C22.2281 3.22417 22.4661 2.86725 22.7635 2.51033C23.0609 2.2129 23.4179 1.97495 23.6558 1.91546H23.7748C23.7748 1.91546 23.8343 1.97495 23.8938 2.09392C24.0722 2.39135 24.1317 2.80777 24.1912 3.16468C24.2507 3.9975 24.1912 4.83031 24.0722 5.60363L23.9532 6.13901C23.2989 6.07953 22.4661 6.07953 21.6928 6.13901C21.3358 6.1985 21.0384 6.1985 20.741 6.1985C21.0384 5.3062 21.5143 4.47338 21.9307 3.70006ZM18.9564 16.0138C18.9564 13.9317 19.2538 11.7902 19.7297 9.64872C19.8487 9.05385 19.9676 8.45899 20.1461 7.92361C21.5143 7.68566 22.7635 7.68566 23.1799 7.68566H23.4774H23.5963C23.1799 8.93488 22.823 9.88666 22.5851 10.422C21.6928 12.4446 20.5625 14.2887 19.1943 15.9543L18.9564 16.2517V16.0138ZM38.5274 14.1697C38.7059 13.9317 39.0033 13.6938 39.2413 13.5748C39.3008 13.5748 39.3603 13.5748 39.4197 13.5153H39.5982V13.5748H39.5387C39.5387 13.6938 39.5387 13.7533 39.4792 13.7533L39.5387 13.8128C39.3603 14.1697 39.0033 14.6456 38.7059 15.062L37.9921 15.7758C37.9921 15.1215 38.1705 14.5861 38.5274 14.1697ZM55.3621 19.7019C55.2432 20.9512 55.0052 22.6168 54.5293 24.4609C54.0534 26.3049 53.3991 28.3275 52.5663 30.469C52.1499 31.5398 51.674 32.6105 51.1386 33.6813L50.9601 33.9787L50.9006 34.0977C50.9006 34.0977 50.9006 34.1572 50.8412 34.0977C50.8412 34.0977 50.9006 34.0382 50.9006 33.9192V33.8003L51.1386 32.908C51.3765 31.7182 51.674 30.5285 51.9714 29.3982C52.6258 27.1378 53.3396 24.9368 53.994 23.0332C54.4698 21.665 54.9457 20.4158 55.4216 19.2855C55.4216 19.4045 55.3621 19.583 55.3621 19.7019ZM72.2563 19.7019C72.1373 20.9512 71.8994 22.6168 71.4235 24.4609C70.9476 26.3049 70.2933 28.3275 69.4604 30.469C69.044 31.5398 68.5681 32.6105 68.0328 33.6813L67.8543 33.9787L67.7948 34.0977C67.7948 34.0977 67.7948 34.1572 67.7353 34.0977C67.7353 34.0977 67.7948 34.0382 67.7948 33.9192V33.8003L68.0328 32.908C68.2707 31.7182 68.5682 30.5285 68.8656 29.3982C69.5199 27.1378 70.2338 24.9368 70.8881 23.0332C71.364 21.665 71.8399 20.4158 72.3158 19.2855C72.3158 19.4045 72.2563 19.583 72.2563 19.7019Z" fill="url(#paint0_linear_868_141)"/>
<path d="M94.7422 22.9737C94.6233 23.0332 94.5638 23.0332 94.4448 23.0927C94.1474 23.1522 93.9094 23.1522 93.612 23.2116C93.1361 23.2711 92.6602 23.3306 92.2438 23.2711C92.0653 23.2711 91.6489 23.2711 91.173 23.0927C90.6377 22.9142 90.1618 22.4978 89.9238 21.9029C89.6264 21.2486 89.5669 20.4753 89.6264 19.8209C89.6264 19.1666 89.7454 18.6312 89.7454 18.3932C89.8048 17.9768 89.8048 17.5604 89.9238 17.144C89.9238 17.025 89.8643 16.9061 89.7454 16.8466C89.4479 16.7276 89.21 16.5491 88.8531 16.4302C88.6151 16.4302 88.4366 16.4897 88.4366 16.7276C88.4168 16.7673 88.4168 16.8268 88.397 16.8664C88.2582 16.9656 88.0599 17.1044 87.8418 17.263C87.4254 17.5604 86.9495 17.8579 86.4736 18.0958C84.9864 18.8691 83.3208 19.226 81.6552 19.226C80.287 19.226 78.9783 18.9286 77.6696 18.4527C77.0152 18.2148 76.4204 17.9173 75.766 17.6199L74.8142 17.0845L74.4573 16.9061L73.9814 16.6681C73.7435 16.6086 73.565 16.5492 73.3866 16.5492C73.684 15.8948 73.8624 15.2999 74.0409 14.8835C74.9332 12.623 75.885 10.3626 76.8963 8.04258C77.1937 7.32874 77.2532 6.91233 77.2532 6.67439L77.1342 5.78209C77.0152 5.54414 76.8963 5.36569 76.7178 5.42517C76.6583 5.42517 76.5988 5.42517 76.5393 5.48466C76.4204 5.54414 76.3609 5.66312 76.2419 5.78209C76.0634 6.07952 75.885 6.49593 75.647 7.03131C75.2306 7.98309 74.8142 8.93487 74.4573 9.88666C74.0211 10.8781 72.871 13.4757 71.5425 16.8466C71.4037 16.9457 71.2054 17.0845 70.9476 17.263C70.5312 17.5604 70.0553 17.8579 69.5794 18.0958C68.0923 18.8691 66.4266 19.226 64.761 19.226C63.3928 19.226 62.0841 18.9286 60.7754 18.4527C60.1211 18.2148 59.5262 17.9173 58.8718 17.6199L57.9201 17.0845L57.5631 16.9061L57.0872 16.6681C56.8493 16.6086 56.6708 16.5492 56.4924 16.5492C56.7898 15.8948 56.9683 15.2999 57.1467 14.8835C58.039 12.623 58.9908 10.3626 60.0021 8.04258C60.2995 7.32874 60.359 6.91233 60.359 6.67439L60.24 5.78209C60.1211 5.54414 60.0021 5.36569 59.8236 5.42517C59.7641 5.42517 59.7047 5.42517 59.6452 5.48466C59.5262 5.54414 59.4667 5.66312 59.3477 5.78209C59.1693 6.07952 58.9908 6.49593 58.7529 7.03131C58.3365 7.98309 57.9201 8.93487 57.5631 9.88666C57.1666 10.779 56.1949 12.9998 55.0052 15.9146V15.8948C54.9457 15.7758 54.8268 15.8948 54.5888 16.1327C54.4104 16.3112 54.2319 16.4897 53.994 16.6086C53.3991 17.0845 52.6852 17.5009 51.9714 17.9173C50.8412 18.5122 49.5919 19.0476 48.3427 19.4045C47.9263 19.5235 46.6771 19.9399 44.952 20.1183C44.0597 20.2373 43.1079 20.2373 42.0966 20.1183C41.0854 19.9994 40.0741 19.6425 39.3603 19.0476C39.0033 18.7502 38.7059 18.3932 38.468 17.9173C38.4085 17.8579 38.349 17.7389 38.349 17.6199L38.4085 17.5604L39.4792 16.4897C39.5387 16.3707 39.6577 16.2517 39.8361 16.0733L40.0146 15.8353L40.2526 15.5379L40.55 15.1215L40.8474 14.7051C40.8474 14.5861 40.9069 14.5266 40.9664 14.4076C40.9664 14.3482 41.0259 14.2292 41.0854 14.1102C41.1449 14.0507 41.1449 13.8723 41.1449 13.7533C41.2043 13.5748 41.2043 13.3964 41.2043 13.2774C41.1449 12.5636 40.55 11.9687 39.7767 11.9092H39.3008C39.1223 11.9687 39.0033 12.0282 38.8844 12.0282L38.468 12.2066L38.111 12.3851C37.6351 12.6825 37.2782 13.0989 36.9808 13.5748C36.6834 14.0507 36.5049 14.5861 36.4454 15.1215C36.3066 15.9741 36.4256 16.7871 36.6239 17.5208L35.6721 18.3338C34.4229 19.2855 33.1142 20.2373 31.746 21.0106C30.6752 21.7245 29.545 22.3193 28.4147 22.7952C27.225 23.3306 26.0353 23.6875 24.8455 23.8065C24.4886 23.8065 23.7153 23.9255 22.704 23.6875C22.2281 23.5686 21.6928 23.3306 21.1574 22.9737C20.6815 22.6168 20.2056 22.0219 19.9082 21.3676C19.5512 20.6537 19.3133 19.8209 19.1943 18.9286C19.1348 18.6907 19.0753 18.5122 19.0753 18.2743C19.3728 18.0958 19.7297 17.7389 20.0866 17.3225C20.741 16.5491 21.2763 15.7758 21.8712 15.0025C22.3471 14.2292 23.5963 12.3851 24.6076 9.64872C24.7861 9.11334 25.024 8.51847 25.2025 7.86412C25.262 7.9236 25.3809 7.92361 25.4999 7.92361C26.5707 8.04258 27.7009 8.22104 27.9983 8.28052C28.2958 8.28052 28.5932 8.28052 28.8311 8.16155C29.2475 7.80463 29.426 7.38822 29.545 6.85285C29.545 6.73387 29.4855 6.67439 29.307 6.67439C29.1881 6.73387 29.0691 6.73388 29.0096 6.73388L27.9388 6.6149C27.344 6.55542 26.8086 6.49593 26.2137 6.37695C26.0948 6.37695 25.9163 6.37696 25.6784 6.31747H25.5594L25.7378 5.00876C25.7973 4.11647 25.8568 3.22417 25.6189 2.2129C25.5594 1.97495 25.4999 1.737 25.3809 1.49906C25.2619 1.20162 25.0835 0.963679 24.8455 0.725733C24.5481 0.487787 24.1317 0.309326 23.7153 0.309326C23.5963 0.309326 23.4179 0.30933 23.2394 0.368816C23.0609 0.428303 22.942 0.428302 22.823 0.547275C22.2281 0.785221 21.8712 1.14214 21.5738 1.49906C21.2169 1.85598 20.9194 2.27238 20.6815 2.6293C20.2056 3.40263 19.8487 4.23544 19.4918 5.00876L18.8969 6.49593C18.0046 6.67439 17.2313 6.91233 16.9338 6.97182L15.5062 7.5072C15.3277 7.56669 15.2682 7.68566 15.2682 7.80463C15.2682 8.10207 15.2087 8.45898 15.3872 8.75642C15.4467 8.99436 15.6846 9.11334 15.8631 8.99436L16.4579 8.75642L18.421 8.22104C18.302 8.69693 18.1831 9.17282 18.1236 9.58922C17.4692 12.4446 17.4097 14.7646 17.4097 15.7758V17.263C17.4097 17.3423 17.4296 17.4415 17.4296 17.5406L17.2313 17.7389C16.4579 18.4527 15.7441 19.1666 14.8518 19.7019C11.4611 21.665 9.43853 22.0219 5.51242 23.2116C5.39344 22.8547 5.09601 22.2599 4.73909 21.8435C3.25193 20.1184 2.41912 19.1666 2.77604 18.5122L3.01398 18.0958V17.8579C3.01398 17.4414 3.07347 16.9061 2.83552 16.7276C2.71655 16.6086 2.59758 16.6681 2.35963 16.7871C2.24066 16.7871 2.12169 16.9061 2.00271 16.9656L1.64579 17.382C1.22939 18.0363 0.991441 18.9881 1.46733 20.1183C2.00271 21.4271 3.66833 22.2004 4.02525 23.985C3.90628 24.1039 3.72782 24.1634 3.54936 24.2229C2.9545 24.5204 2.30015 24.8773 1.70528 25.2937C1.34836 25.5316 1.05093 25.7696 0.69401 26.1265L0.475891 26.4239L0.297433 26.7214L0.118974 27.0783L0 27.4947C0 27.7921 -2.42288e-06 28.0895 0.0594841 28.3275C0.0594841 28.5059 0.118972 28.5654 0.178458 28.6844C0.178458 28.8034 0.237946 28.9224 0.297433 29.1008L0.416407 29.2793L0.535375 29.4577L0.951782 29.8146C1.24921 29.9931 1.60614 30.1121 1.96305 30.0526C2.31997 29.9931 2.61741 29.9336 2.79587 29.8146C3.03381 29.6957 3.21227 29.5172 3.39073 29.3982C3.74765 29.1008 3.9856 28.8034 4.22354 28.4465C4.75892 27.8516 5.05636 27.1378 5.35379 26.4239C5.53225 25.8885 5.59173 25.4126 5.65122 24.8773C7.55479 23.6281 12.3137 23.5686 16.3588 20.6537C16.8545 20.2968 17.3502 19.8606 17.6873 19.4243C17.7072 19.583 17.7468 19.7218 17.7865 19.8804C17.9649 20.9512 18.3813 22.0814 19.1547 23.1522C19.5711 23.6875 20.1065 24.1634 20.6418 24.5204C21.2367 24.8773 21.9505 25.1747 22.6049 25.2937C23.2592 25.4126 23.9731 25.4721 24.6274 25.4127C24.9249 25.4127 25.2818 25.3532 25.5792 25.2937L26.4715 25.1152C27.7207 24.8178 28.7915 24.4014 29.6838 23.985C31.5873 23.1522 32.8366 22.3193 33.3719 21.9624C34.4427 21.2486 35.5729 20.4753 36.2273 19.7019C36.5842 19.3054 36.842 18.9484 37.0601 18.6113C37.4369 19.345 37.9524 19.9597 38.4878 20.3563C39.2016 20.8917 39.9155 21.1891 40.4508 21.3676C40.7483 21.4865 41.0457 21.546 41.2242 21.546C41.4621 21.6055 41.6406 21.665 41.7595 21.665C42.1165 21.665 42.9493 21.784 44.02 21.784C45.0908 21.7245 46.3995 21.546 47.6487 21.2486C48.9574 20.9512 50.2066 20.4753 51.1584 20.0589C52.1697 19.6425 52.8835 19.2855 53.181 19.1071C53.4387 18.9683 53.7163 18.8096 53.9543 18.651C53.0818 20.9115 52.1697 23.4099 51.3369 25.948L50.5041 28.7439L49.7902 31.4803C49.7307 31.8967 49.6118 32.3726 49.4928 32.789C49.4928 33.0269 49.4333 33.2649 49.3738 33.4433V33.6813L49.3143 33.9192V34.4546L49.1359 36.4177V36.8341L49.2549 37.072C49.3738 37.191 49.4333 37.2505 49.6713 37.3694C49.9092 37.4884 50.0282 37.4289 50.2066 37.4289L50.6825 37.191C50.98 36.953 51.3964 36.4771 51.6938 35.9418C51.8723 35.6443 52.0507 35.4064 52.1697 35.109L52.3481 34.8115L52.5266 34.5141L52.943 33.6813C53.4189 32.67 53.7758 31.7777 53.9543 31.3018C54.4302 30.1121 56.4527 25.1152 56.9881 19.583C56.9881 19.226 57.0476 18.8691 57.0476 18.5122V18.4527C57.0476 18.3932 57.1071 18.4527 57.1071 18.4527H57.1666L57.583 18.6907C58.7132 19.345 59.9029 19.8804 61.0332 20.2373C62.1039 20.5942 63.1152 20.7727 63.948 20.8322C64.7808 20.8917 65.4352 20.8322 65.7921 20.8322C67.2793 20.7132 68.8259 20.2373 69.7777 19.583C70.1941 19.2855 70.5312 19.0079 70.8088 18.7303C69.9562 20.971 69.044 23.4298 68.2311 25.948L67.3982 28.7439L66.6844 31.4803C66.6249 31.8967 66.506 32.3726 66.387 32.789C66.387 33.0269 66.3275 33.2649 66.268 33.4433V33.6813L66.2085 33.9192V34.4546L66.03 36.4177V36.8341L66.149 37.072C66.268 37.191 66.3275 37.2505 66.5654 37.3694C66.8034 37.4884 66.9224 37.4289 67.1008 37.4289L67.5767 37.191C67.8741 36.953 68.2905 36.4771 68.588 35.9418C68.7664 35.6443 68.9449 35.4064 69.0639 35.109L69.2423 34.8115L69.4208 34.5141L69.8372 33.6813C70.3131 32.67 70.67 31.7777 70.8485 31.3018C71.3244 30.1121 73.3469 25.1152 73.8823 19.583C73.8823 19.226 73.9418 18.8691 73.9418 18.5122V18.4527C73.9418 18.3932 74.0012 18.4527 74.0012 18.4527H74.0607L74.4771 18.6907C75.6074 19.345 76.7971 19.8804 77.9274 20.2373C78.9981 20.5942 80.0094 20.7727 80.8422 20.8322C81.675 20.8917 82.3294 20.8322 82.6863 20.8322C84.1734 20.7132 85.7201 20.2373 86.6719 19.583C87.3659 19.0872 87.8616 18.6312 88.1789 18.2148C88.0996 18.8295 88.0004 19.6226 88.0401 20.4753C88.0996 21.1891 88.2185 21.9624 88.516 22.6168C88.8134 23.2116 89.1703 23.628 89.3488 23.8065C89.4678 23.866 89.7652 24.1039 90.1816 24.3419C90.598 24.5798 91.1334 24.7583 91.6688 24.8178C92.799 24.9962 93.8103 24.8178 94.0482 24.8178C94.2862 24.7583 94.5836 24.6988 94.7026 24.4609C95 24.0445 95 23.5686 95 23.0927C94.9207 22.9142 94.8612 22.9142 94.7422 22.9737ZM3.74765 26.1265C3.56919 26.5429 3.33124 27.0188 3.03381 27.4352C2.79586 27.7921 2.43895 28.149 2.14151 28.3275C2.02254 28.387 1.96306 28.4465 1.90357 28.4465H1.84408C1.78459 28.4465 1.7846 28.4465 1.7846 28.387C1.72511 28.3275 1.60614 28.149 1.60614 27.9706V27.6731C1.66562 27.4352 1.90357 27.1972 2.14151 26.9593L2.97433 26.3644L3.80713 25.8885C3.80713 25.948 3.74765 26.0075 3.74765 26.1265ZM21.9307 3.70006C22.2281 3.22417 22.4661 2.86725 22.7635 2.51033C23.0609 2.2129 23.4179 1.97495 23.6558 1.91546H23.7748C23.7748 1.91546 23.8343 1.97495 23.8938 2.09392C24.0722 2.39135 24.1317 2.80777 24.1912 3.16468C24.2507 3.9975 24.1912 4.83031 24.0722 5.60363L23.9532 6.13901C23.2989 6.07953 22.4661 6.07953 21.6928 6.13901C21.3358 6.1985 21.0384 6.1985 20.741 6.1985C21.0384 5.3062 21.5143 4.47338 21.9307 3.70006ZM18.9564 16.0138C18.9564 13.9317 19.2538 11.7902 19.7297 9.64872C19.8487 9.05385 19.9676 8.45899 20.1461 7.92361C21.5143 7.68566 22.7635 7.68566 23.1799 7.68566H23.4774H23.5963C23.1799 8.93488 22.823 9.88666 22.5851 10.422C21.6928 12.4446 20.5625 14.2887 19.1943 15.9543L18.9564 16.2517V16.0138ZM38.5274 14.1697C38.7059 13.9317 39.0033 13.6938 39.2413 13.5748C39.3008 13.5748 39.3603 13.5748 39.4197 13.5153H39.5982V13.5748H39.5387C39.5387 13.6938 39.5387 13.7533 39.4792 13.7533L39.5387 13.8128C39.3603 14.1697 39.0033 14.6456 38.7059 15.062L37.9921 15.7758C37.9921 15.1215 38.1705 14.5861 38.5274 14.1697ZM55.3621 19.7019C55.2432 20.9512 55.0052 22.6168 54.5293 24.4609C54.0534 26.3049 53.3991 28.3275 52.5663 30.469C52.1499 31.5398 51.674 32.6105 51.1386 33.6813L50.9601 33.9787L50.9006 34.0977C50.9006 34.0977 50.9006 34.1572 50.8412 34.0977C50.8412 34.0977 50.9006 34.0382 50.9006 33.9192V33.8003L51.1386 32.908C51.3765 31.7182 51.674 30.5285 51.9714 29.3982C52.6258 27.1378 53.3396 24.9368 53.994 23.0332C54.4698 21.665 54.9457 20.4158 55.4216 19.2855C55.4216 19.4045 55.3621 19.583 55.3621 19.7019ZM72.2563 19.7019C72.1373 20.9512 71.8994 22.6168 71.4235 24.4609C70.9476 26.3049 70.2933 28.3275 69.4604 30.469C69.044 31.5398 68.5681 32.6105 68.0328 33.6813L67.8543 33.9787L67.7948 34.0977C67.7948 34.0977 67.7948 34.1572 67.7353 34.0977C67.7353 34.0977 67.7948 34.0382 67.7948 33.9192V33.8003L68.0328 32.908C68.2707 31.7182 68.5682 30.5285 68.8656 29.3982C69.5199 27.1378 70.2338 24.9368 70.8881 23.0332C71.364 21.665 71.8399 20.4158 72.3158 19.2855C72.3158 19.4045 72.2563 19.583 72.2563 19.7019Z" fill="white"/>
<defs>
<linearGradient id="paint0_linear_868_141" x1="-0.00975579" y1="18.8817" x2="94.9873" y2="18.8817" gradientUnits="userSpaceOnUse">
<stop stop-color="#8784B1"/>
<stop offset="0.3559" stop-color="#9E7AAE"/>
<stop offset="0.7209" stop-color="#AE73AD"/>
<stop offset="1" stop-color="#B470AC"/>
</linearGradient>
</defs>
</svg>
