<svg width="26" height="26" viewBox="0 0 26 26" fill="none" xmlns="http://www.w3.org/2000/svg">
<path d="M22.375 1.75H3.625C3.12772 1.75 2.65081 1.94754 2.29917 2.29917C1.94754 2.65081 1.75 3.12772 1.75 3.625V22.375C1.75 22.8723 1.94754 23.3492 2.29917 23.7008C2.65081 24.0525 3.12772 24.25 3.625 24.25H22.375C22.8723 24.25 23.3492 24.0525 23.7008 23.7008C24.0525 23.3492 24.25 22.8723 24.25 22.375V3.625C24.25 3.12772 24.0525 2.65081 23.7008 2.29917C23.3492 1.94754 22.8723 1.75 22.375 1.75Z" stroke="#E19AE0" stroke-width="2"/>
<path d="M6.75 7.375V18.625" stroke="#E19AE0" stroke-width="2" stroke-linecap="round" stroke-linejoin="round"/>
<path d="M8 13.625C9.875 13.625 12.375 13.125 12.375 10.5C12.375 7.875 9.875 7.375 8 7.375H6.75V13.625H8Z" stroke="#E19AE0" stroke-width="2" stroke-linecap="round" stroke-linejoin="round"/>
<path d="M19.25 11.1406C18.625 11.1406 15.5 10.8294 15.5 13.0075C15.5 15.1856 19.25 14.5637 19.25 16.7425C19.25 18.9212 15.5 18.6094 15.5 18.6094" stroke="#E19AE0" stroke-width="2" stroke-linecap="round" stroke-linejoin="round"/>
</svg>
